<?xml version="1.0" encoding="iso-8859-1"?>
<!-- Generator: Adobe Illustrator 19.0.0, SVG Export Plug-In . SVG Version: 6.00 Build 0)  -->
<svg version="1.1" id="Layer_1" xmlns="http://www.w3.org/2000/svg" xmlns:xlink="http://www.w3.org/1999/xlink" x="0px" y="0px"
	 viewBox="0 0 496 496" style="enable-background:new 0 0 496 496;" xml:space="preserve">
<path id="SVGCleanerId_0" style="fill:#00A6F9;" d="M248,46.4c111.2,0,201.6,90.4,201.6,201.6S359.2,449.6,248,449.6
	S46.4,359.2,46.4,248S136.8,46.4,248,46.4 M248,0C111.2,0,0,111.2,0,248s111.2,248,248,248s248-111.2,248-248S384.8,0,248,0L248,0z"
	/>
<g>
	<path id="SVGCleanerId_0_1_" style="fill:#00A6F9;" d="M248,46.4c111.2,0,201.6,90.4,201.6,201.6S359.2,449.6,248,449.6
		S46.4,359.2,46.4,248S136.8,46.4,248,46.4 M248,0C111.2,0,0,111.2,0,248s111.2,248,248,248s248-111.2,248-248S384.8,0,248,0L248,0z
		"/>
</g>
<path style="fill:#009BE0;" d="M248,0C188,0,132.8,21.6,89.6,57.6C53.6,100,32,155.2,32,216c0,136.8,111.2,248,248,248
	c60,0,115.2-21.6,158.4-57.6C474.4,363.2,496,308,496,248C496,111.2,384.8,0,248,0z M405.6,373.6c-36.8,46.4-93.6,76-157.6,76
	c-111.2,0-201.6-90.4-201.6-201.6c0-64,29.6-120.8,76-157.6c37.6-46.4,94.4-76,157.6-76c111.2,0,201.6,90.4,201.6,201.6
	C481.6,279.2,452,336,405.6,373.6z"/>
<path style="fill:#E0055F;" d="M248,0C176.8,0,112,30.4,66.4,78.4l32.8,32.8c36.8-40,89.6-65.6,148-65.6
	c111.2,0,201.6,90.4,201.6,201.6c0,58.4-24.8,111.2-65.6,148L416,428c49.6-44,80-108.8,80-180C496,111.2,384.8,0,248,0z"/>
<path style="fill:#CE005E;" d="M232,0.8c-3.2,0-5.6,0-8,0.8c-1.6,0-3.2,0-4.8,0.8c-2.4,0-5.6,0.8-8,0.8c-1.6,0-3.2,0.8-4,0.8
	c-2.4,0.8-5.6,0.8-8,1.6c-1.6,0-2.4,0.8-4,0.8C192,7.2,188,8,184.8,8.8c-0.8,0-0.8,0-1.6,0c-4,0.8-8,2.4-12,3.2
	c-0.8,0-1.6,0.8-2.4,0.8c-2.4,0.8-5.6,2.4-8.8,3.2c-0.8,0-2.4,0.8-3.2,0.8c-2.4,0.8-5.6,2.4-8,3.2c-0.8,0.8-2.4,0.8-3.2,1.6
	c-2.4,1.6-5.6,2.4-8,4c-0.8,0-1.6,0.8-2.4,0.8c-3.2,1.6-6.4,3.2-10.4,5.6l0,0c-7.2,4-14.4,8.8-20.8,13.6c0,0-0.8,0-0.8,0.8
	c-3.2,2.4-5.6,4-8.8,6.4c-0.8,0-0.8,0.8-1.6,0.8c-1.6,0.8-3.2,2.4-4,3.2c-6.4,8-12.8,16-18.4,24.8l28.8,28.8c2.4-2.4,4-4,6.4-6.4
	l0,0c5.6-5.6,11.2-10.4,16.8-14.4C160,44,216.8,14.4,280,14.4c111.2,0,201.6,90.4,201.6,201.6c0,64-29.6,120.8-76,157.6
	c-6.4,8-13.6,16-21.6,23.2l28.8,28.8c8.8-5.6,16.8-12,24.8-18.4c0.8-1.6,2.4-2.4,3.2-4c0.8-0.8,0.8-0.8,1.6-1.6
	c2.4-2.4,4-5.6,6.4-8.8l0.8-0.8c4.8-6.4,8.8-13.6,13.6-20.8c0,0,0,0,0-0.8c1.6-3.2,4-6.4,5.6-9.6c0.8-0.8,0.8-1.6,0.8-2.4
	c1.6-2.4,2.4-5.6,4-8c0.8-0.8,0.8-1.6,1.6-3.2c0.8-2.4,2.4-5.6,3.2-8c0-0.8,0.8-1.6,0.8-3.2c0.8-3.2,2.4-6.4,3.2-9.6
	c0-0.8,0.8-1.6,0.8-1.6c1.6-4,2.4-8,3.2-12c0-0.8,0-0.8,0-1.6c0.8-3.2,1.6-7.2,2.4-10.4c0-1.6,0.8-2.4,0.8-4c0.8-2.4,0.8-5.6,1.6-8
	c0-1.6,0.8-3.2,0.8-4c0-2.4,0.8-5.6,0.8-8c0-1.6,0-3.2,0.8-4.8c0-2.4,0.8-5.6,0.8-8.8c0-1.6,0-2.4,0-4c0-4,0-8,0-12.8
	C496,111.2,384.8,0,248,0c-4,0-8,0-12,0C234.4,0,232.8,0.8,232,0.8z"/>
<polygon style="fill:#008CF4;" points="212,216 284,216 284,285.6 112,386.4 "/>
<polyline style="fill:#00A6F9;" points="112,386.4 212,216 280,216 "/>
<polygon style="fill:#E0055F;" points="284,285.6 212,285.6 212,216 384,114.4 "/>
<polyline style="fill:#C9055E;" points="384,114.4 284,285.6 212.8,284 "/>
<polygon style="fill:#3C09DB;" points="212,216 212,285.6 284,285.6 284,216 "/>
<g>
	<polyline style="fill:#2906BC;" points="212,285.6 284,285.6 284,216 	"/>
	<circle style="fill:#2906BC;" cx="245.6" cy="250.4" r="8.8"/>
</g>
<circle style="fill:#F0EEFF;" cx="248" cy="248" r="8.8"/>
<path style="fill:#D7D5EF;" d="M248,239.2c4.8,0,8.8,4,8.8,8.8c0,4.8-4,8.8-8.8,8.8"/>
<g>
</g>
<g>
</g>
<g>
</g>
<g>
</g>
<g>
</g>
<g>
</g>
<g>
</g>
<g>
</g>
<g>
</g>
<g>
</g>
<g>
</g>
<g>
</g>
<g>
</g>
<g>
</g>
<g>
</g>
</svg>
